PathFileType	4	(X/Y/Z)	C:\Users\Basilio\Documents\Thesis Gigler\squatting_fais\c3dfiles\073\SLS_front_pre1\markers_experimental.trc
DataRate	CameraRate	NumFrames	NumMarkers	Units	OrigDataRate	OrigDataStartFrame	OrigNumFrames
200.000000	200.000000	4	61	mm	200.000000	523	1395
Frame#	Time	FHD			LBHD			RBHD			C7			T10			CLAV			LSHO			LUUPA			LMUPA			LDUPA			LLEP			LMEP			LRAD			LUL			LRFIN			RSHO			RUPA1			RMUPA			RDUPA			RLEP			RMEP			RUL			RUFIN			LASI			RASI			USACR			LSACR			RSACR			LTHI1			LTHI2			LTHI3			LTHI4			LLFC			LMFC			LTIB1			LTIB2			LTIB3			LTIB4			LLMAL			LMMAL			LHEE			LMT1			LMT2			LMT5			RTHI			RTHI2			RTHI3			RTHI4			RLFC			RMFC			RTIB1			RTIB2			RTIB3			RTIB4			RLMAL			RMMAL			RHEE			RMT1			RMT2			RMT5			RRAD			
		X1	Y1	Z1	X2	Y2	Z2	X3	Y3	Z3	X4	Y4	Z4	X5	Y5	Z5	X6	Y6	Z6	X7	Y7	Z7	X8	Y8	Z8	X9	Y9	Z9	X10	Y10	Z10	X11	Y11	Z11	X12	Y12	Z12	X13	Y13	Z13	X14	Y14	Z14	X15	Y15	Z15	X16	Y16	Z16	X17	Y17	Z17	X18	Y18	Z18	X19	Y19	Z19	X20	Y20	Z20	X21	Y21	Z21	X22	Y22	Z22	X23	Y23	Z23	X24	Y24	Z24	X25	Y25	Z25	X26	Y26	Z26	X27	Y27	Z27	X28	Y28	Z28	X29	Y29	Z29	X30	Y30	Z30	X31	Y31	Z31	X32	Y32	Z32	X33	Y33	Z33	X34	Y34	Z34	X35	Y35	Z35	X36	Y36	Z36	X37	Y37	Z37	X38	Y38	Z38	X39	Y39	Z39	X40	Y40	Z40	X41	Y41	Z41	X42	Y42	Z42	X43	Y43	Z43	X44	Y44	Z44	X45	Y45	Z45	X46	Y46	Z46	X47	Y47	Z47	X48	Y48	Z48	X49	Y49	Z49	X50	Y50	Z50	X51	Y51	Z51	X52	Y52	Z52	X53	Y53	Z53	X54	Y54	Z54	X55	Y55	Z55	X56	Y56	Z56	X57	Y57	Z57	X58	Y58	Z58	X59	Y59	Z59	X60	Y60	Z60	X61	Y61	Z61	

524	2.615	-173.49267578125	1427.42578125	-782.7628173828127	-308.7410888671876	1401.90771484375	-809.6773681640627	-333.7941284179688	1382.009643554688	-676.9628295898439	-364.8234558105469	1298.303466796875	-741.5952758789064	-531.1760864257814	1011.794067382813	-750.0584716796876	-262.4806518554688	1185.863403320313	-744.0791625976564	-281.0785827636719	1249.450561523438	-882.4589843750002	-202.8715209960938	1177.817016601563	-978.0884399414065	-162.2787780761719	1195.917846679688	-954.3425292968752	-140.7009429931641	1149.124389648438	-986.654235839844	-36.15559005737305	1123.745361328125	-988.098571777344	-40.84328079223634	1068.44091796875	-944.3504028320315	222.8668975830079	1149.247924804688	-873.916198730469	227.3976440429688	1148.303466796875	-948.308288574219	303.6051635742188	1160.985107421875	-864.310241699219	-268.8388061523438	1235.733764648438	-604.0260009765626	-179.4127044677735	1142.50927734375	-506.1173095703126	-141.2038116455078	1165.290893554688	-524.7385253906251	-115.6814804077149	1115.930908203125	-501.9064025878907	-22.75857162475586	1102.004638671875	-505.7803955078126	-26.43762016296387	1047.7431640625	-567.6368408203126	238.3524017333985	1148.9853515625	-552.8382568359376	315.3605957031251	1167.848388671875	-634.5607910156251	-408.7588195800782	838.548767089844	-888.5522460937502	-396.9456481933595	826.752624511719	-641.7766113281251	-578.3901977539064	882.6777954101565	-752.1700439453126	-588.6452026367189	853.1641845703127	-780.9254150390627	-588.5922241210939	848.9229736328127	-725.2521362304689	-225.4256439208985	652.4282226562501	-947.216979980469	-143.4006805419922	644.3938598632814	-925.6811523437502	-128.0860748291016	680.4131469726564	-894.3568115234377	-113.505485534668	594.4765625000001	-917.3140869140627	-64.78212738037111	563.0479125976564	-917.1037597656252	-68.13513183593751	554.1411743164064	-777.402282714844	115.6245727539063	473.0851440429689	-862.8772583007815	109.3316650390625	405.387664794922	-917.9392089843752	140.9437103271485	429.856414794922	-896.1722412109377	199.6636505126954	378.5594787597657	-863.069274902344	248.7224273681641	254.6058654785157	-890.664245605469	236.7027435302735	274.9056396484376	-806.0686645507815	233.2007446289063	187.7567291259766	-850.6777343750002	387.3678588867189	345.9266052246094	-801.6981201171877	388.195526123047	350.0647583007813	-840.1606445312502	383.2011108398438	309.7577209472657	-894.6444091796877	-334.7227783203126	614.0487060546876	-585.8486938476564	-269.4280090332032	601.1414184570314	-588.3378906250001	-247.3178100585938	625.1893310546876	-591.2623901367189	-233.5084686279297	529.0422363281251	-612.3968505859376	-139.6994323730469	434.5082397460939	-644.3743896484376	-137.4339141845703	444.5248413085939	-773.2883911132815	-170.5477447509766	295.2677612304688	-753.9893188476564	-229.3084716796876	227.8729553222657	-692.7905883789064	-212.0781250000001	220.6104431152344	-736.8798828125001	-253.6238098144532	196.9529266357422	-770.2131347656252	-356.0065612792969	95.53096771240236	-723.5750122070314	-343.5203857421876	129.7723541259766	-808.2927856445315	-432.8309020996095	84.62679290771486	-782.1578369140627	-208.7615814208985	55.16554260253908	-785.6231079101565	-210.6988830566407	51.27244949340822	-745.2533569335939	-256.4417724609376	33.7795753479004	-699.5167846679689	225.6940612792969	1143.167724609375	-627.1154785156251	
525	2.62	-173.4267883300782	1426.643798828125	-782.6677856445315	-308.2286682128907	1401.13330078125	-809.5994262695315	-333.4812316894532	1381.316650390625	-676.7587280273439	-364.3885498046876	1297.647094726563	-741.5004272460939	-531.0883789062501	1011.393371582031	-750.0679931640626	-262.3872985839844	1184.913696289063	-744.1151733398439	-280.7359619140626	1248.761962890625	-882.3587646484377	-202.5901641845704	1177.182495117188	-978.149597167969	-161.8982543945313	1195.245971679688	-954.2055664062502	-140.4873962402344	1148.447631835938	-986.6088867187502	-35.84321212768555	1122.831665039063	-988.1240844726565	-40.59197235107423	1067.689453125	-944.3331298828127	223.0028686523438	1148.1982421875	-873.9843750000002	227.6189880371094	1147.423583984375	-948.4052734375002	303.5755310058594	1160.063232421875	-864.0490722656252	-268.3825988769532	1234.99853515625	-603.9973144531251	-179.0323486328125	1141.6962890625	-506.1161499023439	-140.816650390625	1164.44580078125	-524.8599243164064	-115.2475662231446	1115.184814453125	-501.9053344726564	-22.3166790008545	1101.134521484375	-505.6579589843751	-26.01819229125977	1046.87451171875	-567.6582031250001	238.7162322998047	1148.206176757813	-552.7985229492189	315.7746582031251	1166.942138671875	-634.7310180664064	-408.8367309570314	838.0379028320315	-888.5946044921877	-397.0018310546876	826.3107910156252	-641.7562866210939	-578.4839477539064	882.181091308594	-752.0776367187501	-588.6777954101564	852.651794433594	-780.855651855469	-588.6546020507814	848.455261230469	-725.1986694335939	-225.6373748779297	652.0139160156251	-946.7531738281252	-143.2149810791016	644.3356323242189	-925.763122558594	-127.9391555786133	680.4189453125001	-894.4813232421877	-113.2350997924805	594.9397583007814	-916.753845214844	-64.5112762451172	563.1218261718751	-917.1506958007815	-67.68584442138673	554.3009033203126	-777.522155761719	116.0686492919922	473.4577636718751	-863.0794677734377	109.9388656616211	405.7795715332032	-918.0786132812502	141.5062561035157	430.1768798828126	-896.4278564453127	200.2579650878907	378.9904479980469	-863.1993408203127	249.2486114501954	255.0826568603516	-890.7476196289065	237.4622802734376	275.3949890136719	-806.215759277344	234.0297393798829	188.2666931152344	-850.7523193359377	388.0147399902345	346.6432189941407	-802.0613403320315	388.6231689453126	350.8686218261719	-840.3323364257815	383.7706604003907	310.4835510253907	-894.9561767578127	-334.6518554687501	613.6558837890626	-585.7165527343751	-269.3905029296876	600.8186035156251	-588.3016967773439	-247.2594909667969	624.9384765625001	-591.0972900390626	-233.3632049560547	528.7589721679689	-612.2608642578126	-139.4951782226563	434.3641052246095	-644.2222290039064	-136.9959411621094	444.4488220214845	-773.1748046875002	-170.3745422363282	295.1903991699219	-753.9079589843751	-229.2610626220704	227.8391113281251	-692.6036376953126	-212.1072082519532	220.4794464111329	-736.8681640625001	-253.5445404052735	196.9061737060547	-770.0198974609377	-355.9959106445313	95.48050689697267	-723.5362548828126	-343.4571533203126	129.7632904052735	-808.1687011718752	-432.8175354003907	84.62849426269533	-782.118591308594	-208.7459259033204	55.23441696166994	-785.5981445312502	-210.7078857421876	51.24283599853517	-745.1890869140626	-256.4858703613282	33.75623321533204	-699.4818115234376	225.981430053711	1142.315185546875	-627.3178710937501	
526	2.625	-173.115234375	1425.992309570313	-782.5964355468752	-307.9813232421876	1400.389526367188	-809.506042480469	-333.1240234375001	1380.481567382813	-676.6111450195314	-363.9890136718751	1296.97412109375	-741.4154052734376	-531.0262451171876	1010.990539550781	-750.0955200195314	-262.1109008789063	1184.027587890625	-744.0607910156251	-280.3614196777344	1247.934204101563	-882.1834716796877	-202.1664428710938	1176.60009765625	-978.1145019531252	-161.5522766113282	1194.47802734375	-954.161804199219	-140.1182098388672	1147.68017578125	-986.6331176757815	-35.54517364501954	1122.0869140625	-988.200134277344	-40.23545837402344	1066.898315429688	-944.3294067382815	223.3847351074219	1147.221923828125	-874.0396118164065	227.8639373779297	1146.581787109375	-948.4787597656252	303.8692016601563	1158.995971679688	-864.1356201171877	-268.0326538085938	1234.226440429688	-603.9577636718751	-178.63134765625	1140.95263671875	-505.9703674316407	-140.4286804199219	1163.644897460938	-524.8086547851564	-114.8807907104492	1114.348022460938	-501.843719482422	-21.98886489868164	1100.40283203125	-505.657928466797	-25.69048881530762	1046.078125	-567.6420288085939	239.1185150146485	1147.366088867188	-552.9378051757814	316.1240234375001	1166.165893554688	-634.6247558593751	-408.9100952148439	837.6022949218752	-888.6067504882815	-397.0555419921876	825.8308715820315	-641.7908935546876	-578.5242919921876	881.7351074218752	-752.1177368164064	-588.7179565429689	852.1003417968752	-780.7800292968752	-588.7037963867189	847.988464355469	-725.1527099609376	-225.4856872558594	651.8211669921876	-946.726013183594	-143.0937805175782	644.2841186523439	-925.875183105469	-127.8768463134766	680.3915405273439	-894.6572265625002	-112.9245986938477	594.9615478515626	-916.8728637695315	-64.17406463623048	563.1766357421876	-917.2738037109377	-67.37579345703126	554.4081420898439	-777.6509399414065	116.5161972045899	473.8326416015626	-863.323425292969	110.6082229614258	406.079315185547	-918.1182250976565	141.969970703125	430.5801696777345	-896.6147460937502	200.865219116211	379.4596862792969	-863.3784179687502	249.8863220214844	255.5244293212891	-890.9424438476565	238.1762390136719	275.9361267089844	-806.4978027343752	234.8987274169922	188.80078125	-850.8103637695315	388.7435913085939	347.3720703125001	-802.4283447265627	389.2582092285157	351.8835449218751	-840.6897583007815	384.3003845214845	311.1130981445313	-895.0466918945315	-334.6139221191407	613.2763671875001	-585.5563354492189	-269.3666992187501	600.5133056640626	-588.2406616210939	-247.2366638183594	624.6697998046876	-591.0986938476564	-233.2812042236329	528.4774780273439	-612.1089477539064	-139.2739410400391	434.1597595214845	-643.9945678710939	-136.7174072265625	444.4692993164064	-773.0693969726565	-170.3892822265625	295.0281066894532	-753.7940063476564	-229.2445831298829	227.7499237060547	-692.3485107421876	-212.1254425048829	220.4106903076172	-736.6254272460939	-253.6059265136719	196.8095703125001	-769.8972778320315	-356.0098571777344	95.41326141357423	-723.4341430664064	-343.4247131347657	129.8084869384766	-808.0346679687502	-432.8400878906251	84.63537597656251	-782.0942993164065	-208.7166900634766	55.26497268676759	-785.5579833984377	-210.7052764892579	51.23997116088869	-745.1873779296876	-256.4691162109376	33.70498275756837	-699.4478149414064	226.3285827636719	1141.548461914063	-627.3629150390626	
527	2.63	-172.767578125	1425.264770507813	-782.403747558594	-307.6035461425782	1399.693969726563	-809.2944335937502	-332.7087097167969	1379.593994140625	-676.5129394531251	-363.5437011718751	1296.267944335938	-741.2845458984376	-530.9755249023439	1010.625366210938	-750.1097412109376	-261.5314636230469	1183.564819335938	-743.9748535156251	-279.8953857421876	1247.338623046875	-882.0332031250002	-201.9016876220704	1175.838134765625	-978.0249023437502	-161.2239074707032	1193.807373046875	-954.139343261719	-139.8855743408203	1146.984008789063	-986.717468261719	-35.30254364013673	1121.429443359375	-988.1459960937502	-40.04543685913087	1066.161010742188	-944.454284667969	223.8450317382813	1146.446044921875	-873.9294433593752	228.2608032226563	1145.753784179688	-948.533386230469	304.1972961425782	1158.17578125	-864.1162109375002	-267.6152954101563	1233.487548828125	-603.8665161132814	-178.1442565917969	1140.14404296875	-505.9710388183595	-139.9894714355469	1162.868774414063	-524.6956787109376	-114.479232788086	1113.463256835938	-501.8763427734376	-21.50749397277832	1099.64306640625	-505.7178649902345	-25.20677185058594	1045.21484375	-567.7142333984376	239.5060577392579	1146.521240234375	-552.9013671875001	316.4823913574219	1165.413330078125	-634.5291137695314	-409.0155639648439	837.081481933594	-888.547058105469	-397.070526123047	825.403503417969	-641.8270263671876	-578.5321044921876	881.3190917968752	-752.1063232421876	-588.7318725585939	851.5826416015627	-780.7080688476565	-588.7307739257814	847.575622558594	-725.0687255859376	-225.3494567871094	651.6477661132814	-946.7747192382815	-142.9902648925782	644.2581787109376	-925.9840087890627	-127.7606735229492	680.3471069335939	-894.7920532226565	-112.71533203125	594.9389648437501	-917.0103759765627	-63.9275360107422	563.2475585937501	-917.4133911132815	-67.10040283203126	554.5175781250001	-777.7258911132815	116.9737930297852	474.219207763672	-863.5000610351565	110.6770172119141	406.4291381835939	-918.5142211914065	142.3108367919922	431.0179138183595	-896.6927490234377	201.4326171875001	379.9131469726563	-863.6514282226565	250.7786712646485	256.0450744628907	-891.100280761719	238.9066925048829	276.5412902832032	-806.598815917969	235.7687225341797	189.301254272461	-850.961608886719	389.4611206054689	348.1813659667969	-802.7375488281252	389.768280029297	352.7486877441407	-840.8134765625002	384.9644470214845	311.7513427734376	-895.2122802734377	-334.5725402832032	612.9554443359376	-585.4701538085939	-269.2512817382813	600.0997314453126	-588.2990112304689	-247.2713470458985	624.5121459960939	-591.0156860351564	-233.1627960205079	528.2677612304689	-611.9610595703126	-139.0793914794922	434.0098876953126	-643.7811279296876	-136.3363800048828	444.5694580078126	-772.885437011719	-170.2610931396485	294.8930358886719	-753.6204223632814	-229.2069091796876	227.7414703369141	-692.1743774414064	-212.1797485351563	220.2824249267579	-736.6572875976564	-253.7611999511719	196.8054962158204	-769.9497680664065	-356.0599060058594	95.34932708740236	-723.3431396484376	-343.4178161621094	129.8646850585938	-807.836120605469	-432.8635253906251	84.64078521728517	-782.0300903320315	-208.7308807373047	55.36657714843751	-785.4674072265627	-210.7130432128907	51.23511886596681	-745.1934814453126	-256.4594726562501	33.67623901367188	-699.4450683593751	226.8331604003907	1140.5400390625	-627.1029052734376	
